<?xml version="1.0" encoding="UTF-8" standalone="no"?>
<!-- Created with Inkscape (http://www.inkscape.org/) -->

<svg
   width="52.916672mm"
   height="52.916672mm"
   viewBox="0 0 52.916672 52.916672"
   version="1.1"
   id="svg3282"
   xmlns:inkscape="http://www.inkscape.org/namespaces/inkscape"
   xmlns:sodipodi="http://sodipodi.sourceforge.net/DTD/sodipodi-0.dtd"
   xmlns="http://www.w3.org/2000/svg"
   xmlns:svg="http://www.w3.org/2000/svg">
  <sodipodi:namedview
     id="namedview3284"
     pagecolor="#505050"
     bordercolor="#eeeeee"
     borderopacity="1"
     inkscape:showpageshadow="0"
     inkscape:pageopacity="0"
     inkscape:pagecheckerboard="0"
     inkscape:deskcolor="#505050"
     inkscape:document-units="mm"
     showgrid="false" />
  <defs
     id="defs3279" />
  <g
     inkscape:label="Layer 1"
     inkscape:groupmode="layer"
     id="layer1"
     transform="translate(-16.190401,-19.834722)">
    <g
       id="g5728"
       transform="matrix(1.0804137,0,0,1.0804137,-115.30078,-203.28251)">
      <path
         id="path5404"
         style="fill:#ff8680;fill-opacity:1;stroke:#2affa9;stroke-width:8.01825;stroke-linecap:round;stroke-linejoin:round;stroke-opacity:1"
         d="M 166.6735,231 A 20.479953,20.479953 0 0 1 146.19355,251.47996 20.479953,20.479953 0 0 1 125.7136,231 20.479953,20.479953 0 0 1 146.19355,210.52005 20.479953,20.479953 0 0 1 166.6735,231 Z" />
      <path
         id="path5406"
         style="fill:#005544;fill-opacity:1;stroke-width:1.66743;stroke-linecap:round;stroke-linejoin:round"
         d="M 166.6735,231 A 20.479953,20.479953 0 0 1 146.19355,251.47996 20.479953,20.479953 0 0 1 125.7136,231 20.479953,20.479953 0 0 1 146.19355,210.52005 20.479953,20.479953 0 0 1 166.6735,231 Z" />
      <path
         id="path5717"
         style="color:#000000;fill:#005544;stroke-linecap:round;-inkscape-stroke:none"
         d="m 165.1677,215.55687 c -0.0309,-0.0379 -0.0609,-0.0765 -0.092,-0.11421 -0.125,-0.1513 -0.25182,-0.30082 -0.38034,-0.44906 -0.12852,-0.14825 -0.2587,-0.29517 -0.39067,-0.44029 -0.13197,-0.14512 -0.26565,-0.28854 -0.40101,-0.43046 -0.13536,-0.14193 -0.27266,-0.2825 -0.41134,-0.42117 -0.13869,-0.13866 -0.27871,-0.27548 -0.42065,-0.41082 -0.14194,-0.13535 -0.28585,-0.26906 -0.43098,-0.40101 -0.14514,-0.13196 -0.29151,-0.26217 -0.43977,-0.39068 -0.14826,-0.1285 -0.29826,-0.25535 -0.44958,-0.38033 -0.15133,-0.12499 -0.30405,-0.24809 -0.45837,-0.36949 -0.15432,-0.1214 -0.31042,-0.24088 -0.46767,-0.35864 -0.15726,-0.11775 -0.31583,-0.23374 -0.47594,-0.34778 -0.16012,-0.11404 -0.32129,-0.22615 -0.48421,-0.33641 -0.16292,-0.11026 -0.32734,-0.21863 -0.493,-0.32505 -0.16565,-0.10641 -0.33293,-0.21117 -0.50126,-0.31367 -0.16832,-0.10251 -0.33808,-0.20275 -0.50901,-0.30128 -0.17093,-0.0985 -0.34278,-0.19541 -0.51625,-0.2899 -0.0999,-0.0544 -0.20111,-0.10665 -0.30179,-0.15968 l -10.68358,5.22655 c 0.0616,0.002 0.12358,0.004 0.185,0.007 0.14101,0.007 0.28114,0.0158 0.42116,0.0264 0.14003,0.0105 0.27959,0.0227 0.41858,0.0367 0.13899,0.014 0.27757,0.0297 0.41548,0.047 0.13791,0.0174 0.27558,0.0367 0.41238,0.0574 0.13679,0.0207 0.27261,0.0426 0.40824,0.0667 0.13563,0.024 0.27071,0.0497 0.40514,0.077 0.13444,0.0273 0.26834,0.0563 0.40153,0.0868 0.13319,0.0305 0.26601,0.0624 0.39791,0.0961 0.1319,0.0337 0.2632,0.0691 0.39377,0.10593 0.13057,0.0368 0.26044,0.0753 0.38964,0.11524 0.1292,0.0399 0.25772,0.0811 0.38551,0.12402 0.12779,0.043 0.25452,0.0874 0.38085,0.13333 0.12634,0.046 0.25189,0.0937 0.37673,0.14263 0.12483,0.0489 0.24929,0.099 0.37258,0.15089 0.1233,0.0519 0.24571,0.10545 0.36742,0.1602 0.12172,0.0547 0.24268,0.11088 0.36277,0.16846 0.0777,0.0373 0.15449,0.0758 0.23151,0.11421 l 7.65948,-3.74809 -1.92856,8.49767 c 0.0294,0.0387 0.0593,0.0768 0.0884,0.11575 0.0788,0.1056 0.15625,0.21233 0.23255,0.31988 0.0763,0.10756 0.15155,0.21557 0.22531,0.32505 0.0737,0.10947 0.14639,0.21989 0.21755,0.33124 0.0712,0.11135 0.14076,0.22375 0.20929,0.33693 0.0685,0.11318 0.13568,0.22764 0.20154,0.34262 0.0659,0.11497 0.13065,0.23054 0.19379,0.34726 0.0631,0.11672 0.12462,0.23452 0.185,0.35295 0.0604,0.11843 0.11967,0.23751 0.17725,0.3576 0.0576,0.1201 0.11372,0.24106 0.16847,0.36277 0.0547,0.12172 0.10782,0.24412 0.15968,0.36742 0.0519,0.1233 0.10247,0.24724 0.15141,0.37207 0.0489,0.12484 0.0961,0.25091 0.14211,0.37724 0.046,0.12633 0.0909,0.25307 0.13384,0.38086 0.043,0.12778 0.0841,0.2563 0.12402,0.3855 0.0399,0.1292 0.0784,0.25907 0.11524,0.38964 0.0368,0.13057 0.0718,0.26188 0.10542,0.39378 0.0337,0.1319 0.0661,0.26472 0.0966,0.3979 0.0305,0.13319 0.059,0.26658 0.0863,0.40101 0.0143,0.0703 0.0269,0.14124 0.0403,0.21188 z" />
      <path
         style="color:#000000;fill:#2affa9;fill-opacity:1;stroke-width:0.418234;stroke-linecap:round;-inkscape-stroke:none"
         d="m 164.47933,208.42662 -35.14884,17.19819 20.58837,1.44 5.90138,19.52227 z m -7.49961,9.47723 -2.87618,19.57938 -4.8056,-8.42185 -9.23218,10.21568 7.82064,-11.33315 -9.30079,-2.74139 z"
         id="path5408"
         sodipodi:nodetypes="cccccccccccc" />
      <path
         id="path5410"
         style="fill:#2affa9;fill-opacity:1;stroke-width:6.04276;stroke-linecap:round;stroke-linejoin:round"
         inkscape:transform-center-y="-8.6487392"
         d="m 160.72937,213.16523 -2.74633,1.08972 -28.65255,11.36986 13.69907,4.03749 -11.0716,16.04471 a 20.479953,20.479953 0 0 0 0.30561,0.30582 20.479953,20.479953 0 0 0 1.16104,0.99894 20.479953,20.479953 0 0 0 1.23214,0.90947 20.479953,20.479953 0 0 0 1.06508,0.66935 l 13.02021,-14.40754 7.0782,12.40403 4.47104,-30.43993 z m -2.66939,1.14311 a 20.479953,20.479953 0 0 1 0.42599,0.311 20.479953,20.479953 0 0 1 0.41756,0.32182 20.479953,20.479953 0 0 1 0.40934,0.33262 20.479953,20.479953 0 0 1 0.40049,0.34299 20.479953,20.479953 0 0 1 0.39162,0.35337 20.479953,20.479953 0 0 0 -0.39162,-0.35337 20.479953,20.479953 0 0 0 -0.40049,-0.34299 20.479953,20.479953 0 0 0 -0.40934,-0.33262 20.479953,20.479953 0 0 0 -0.41756,-0.32182 20.479953,20.479953 0 0 0 -0.42599,-0.311 z" />
      <path
         style="color:#000000;fill:#2affa9;fill-opacity:1;stroke-width:0.418234;stroke-linecap:square;-inkscape-stroke:none"
         d="m 160.53879,211.29543 -0.83974,1.03007 -18.15098,25.09751 20.21192,-23.41804 0.83974,-1.03006 z"
         id="path5412"
         sodipodi:nodetypes="cccccc" />
    </g>
  </g>
</svg>
